<mxfile host="Electron" modified="2024-05-24T06:24:54.078Z" agent="Mozilla/5.0 (Windows NT 10.0; Win64; x64) AppleWebKit/537.36 (KHTML, like Gecko) draw.io/24.4.0 Chrome/120.0.6099.109 Electron/28.1.0 Safari/537.36" etag="heIfTgzZ1a565ZPQb7Kv" version="24.4.0" type="device">
  <diagram name="第1頁" id="WvWov8u-81ePiNnduFSE">
    <mxGraphModel dx="1434" dy="844" grid="0" gridSize="10" guides="1" tooltips="1" connect="1" arrows="1" fold="1" page="1" pageScale="1" pageWidth="827" pageHeight="1169" math="0" shadow="0">
      <root>
        <mxCell id="0" />
        <mxCell id="1" parent="0" />
        <mxCell id="sAWBEsxqTTnHa6QftrfZ-1" value="題目: 給一個matrix後，從這個matrix的左下角開始走，走到n^2" style="rounded=1;whiteSpace=wrap;html=1;" vertex="1" parent="1">
          <mxGeometry x="69" y="47" width="687" height="60" as="geometry" />
        </mxCell>
      </root>
    </mxGraphModel>
  </diagram>
</mxfile>
